<?xml version="1.0" encoding="UTF-8" standalone="no"?>
<!DOCTYPE svg PUBLIC "-//W3C//DTD SVG 1.1//EN"
 "http://www.w3.org/Graphics/SVG/1.1/DTD/svg11.dtd">
<!-- Generated by graphviz version 7.0.4 (20221203.1631)
 -->
<!-- Pages: 1 -->
<svg width="1817pt" height="404pt"
 viewBox="0.00 0.00 1816.89 404.00" xmlns="http://www.w3.org/2000/svg" xmlns:xlink="http://www.w3.org/1999/xlink">
<g id="graph0" class="graph" transform="scale(1 1) rotate(0) translate(4 400)">
<polygon fill="white" stroke="none" points="-4,4 -4,-400 1812.89,-400 1812.89,4 -4,4"/>
<!-- AA -->
<g id="node1" class="node">
<title>AA</title>
<ellipse fill="none" stroke="black" cx="802.45" cy="-234" rx="27" ry="18"/>
<text text-anchor="middle" x="802.45" y="-230.3" font-family="Times,serif" font-size="14.00">AA</text>
</g>
<!-- NC -->
<g id="node2" class="node">
<title>NC</title>
<ellipse fill="none" stroke="black" cx="802.45" cy="-162" rx="27" ry="18"/>
<text text-anchor="middle" x="802.45" y="-158.3" font-family="Times,serif" font-size="14.00">NC</text>
</g>
<!-- AA&#45;&#45;NC -->
<g id="edge1" class="edge">
<title>AA&#45;&#45;NC</title>
<path fill="none" stroke="black" d="M802.45,-215.7C802.45,-204.85 802.45,-190.92 802.45,-180.1"/>
</g>
<!-- VY -->
<g id="node3" class="node">
<title>VY</title>
<ellipse fill="none" stroke="black" cx="730.45" cy="-162" rx="27" ry="18"/>
<text text-anchor="middle" x="730.45" y="-158.3" font-family="Times,serif" font-size="14.00">VY</text>
</g>
<!-- AA&#45;&#45;VY -->
<g id="edge2" class="edge">
<title>AA&#45;&#45;VY</title>
<path fill="none" stroke="black" d="M787.53,-218.5C775.17,-206.48 757.7,-189.49 745.35,-177.49"/>
</g>
<!-- BH -->
<g id="node4" class="node">
<title>BH</title>
<ellipse fill="none" stroke="black" cx="216.45" cy="-162" rx="27" ry="18"/>
<text text-anchor="middle" x="216.45" y="-158.3" font-family="Times,serif" font-size="14.00">BH</text>
</g>
<!-- AA&#45;&#45;BH -->
<g id="edge3" class="edge">
<title>AA&#45;&#45;BH</title>
<path fill="none" stroke="black" d="M775.63,-230.43C665.55,-219.89 254.05,-180.44 252.45,-180 247.25,-178.57 241.88,-176.43 236.92,-174.15"/>
</g>
<!-- TQ -->
<g id="node5" class="node">
<title>TQ</title>
<ellipse fill="none" stroke="black" cx="984.45" cy="-162" rx="27" ry="18"/>
<text text-anchor="middle" x="984.45" y="-158.3" font-family="Times,serif" font-size="14.00">TQ</text>
</g>
<!-- AA&#45;&#45;TQ -->
<g id="edge4" class="edge">
<title>AA&#45;&#45;TQ</title>
<path fill="none" stroke="black" d="M826.48,-225.04C855.63,-215.22 906.13,-197.63 948.45,-180 953.3,-177.98 958.44,-175.66 963.27,-173.4"/>
</g>
<!-- YJ -->
<g id="node6" class="node">
<title>YJ</title>
<ellipse fill="none" stroke="black" cx="912.45" cy="-162" rx="27" ry="18"/>
<text text-anchor="middle" x="912.45" y="-158.3" font-family="Times,serif" font-size="14.00">YJ</text>
</g>
<!-- AA&#45;&#45;YJ -->
<g id="edge5" class="edge">
<title>AA&#45;&#45;YJ</title>
<path fill="none" stroke="black" d="M821.61,-220.81C841.8,-207.96 873.4,-187.85 893.51,-175.05"/>
</g>
<!-- ZE -->
<g id="node42" class="node">
<title>ZE</title>
<ellipse fill="none" stroke="black" cx="574.45" cy="-90" rx="28.7" ry="18"/>
<text text-anchor="middle" x="574.45" y="-86.3" font-family="Times,serif" font-size="14.00">ZE 7</text>
</g>
<!-- NC&#45;&#45;ZE -->
<g id="edge49" class="edge">
<title>NC&#45;&#45;ZE</title>
<path fill="none" stroke="black" d="M781.39,-150.32C776.55,-148.07 771.37,-145.83 766.45,-144 708.9,-122.65 638.85,-105.43 601.3,-96.87"/>
</g>
<!-- MB -->
<g id="node9" class="node">
<title>MB</title>
<ellipse fill="none" stroke="black" cx="216.45" cy="-90" rx="36.29" ry="18"/>
<text text-anchor="middle" x="216.45" y="-86.3" font-family="Times,serif" font-size="14.00">MB 17</text>
</g>
<!-- BH&#45;&#45;MB -->
<g id="edge13" class="edge">
<title>BH&#45;&#45;MB</title>
<path fill="none" stroke="black" d="M216.45,-143.7C216.45,-132.85 216.45,-118.92 216.45,-108.1"/>
</g>
<!-- ZM -->
<g id="node58" class="node">
<title>ZM</title>
<ellipse fill="none" stroke="black" cx="940.45" cy="-90" rx="27" ry="18"/>
<text text-anchor="middle" x="940.45" y="-86.3" font-family="Times,serif" font-size="14.00">ZM</text>
</g>
<!-- YJ&#45;&#45;ZM -->
<g id="edge70" class="edge">
<title>YJ&#45;&#45;ZM</title>
<path fill="none" stroke="black" d="M919.08,-144.41C923.55,-133.25 929.41,-118.6 933.86,-107.47"/>
</g>
<!-- AI -->
<g id="node7" class="node">
<title>AI</title>
<ellipse fill="none" stroke="black" cx="129.45" cy="-234" rx="27" ry="18"/>
<text text-anchor="middle" x="129.45" y="-230.3" font-family="Times,serif" font-size="14.00">AI</text>
</g>
<!-- ZR -->
<g id="node8" class="node">
<title>ZR</title>
<ellipse fill="none" stroke="black" cx="144.45" cy="-162" rx="27" ry="18"/>
<text text-anchor="middle" x="144.45" y="-158.3" font-family="Times,serif" font-size="14.00">ZR</text>
</g>
<!-- AI&#45;&#45;ZR -->
<g id="edge6" class="edge">
<title>AI&#45;&#45;ZR</title>
<path fill="none" stroke="black" d="M133.15,-215.7C135.48,-204.85 138.46,-190.92 140.78,-180.1"/>
</g>
<!-- AI&#45;&#45;MB -->
<g id="edge7" class="edge">
<title>AI&#45;&#45;MB</title>
<path fill="none" stroke="black" d="M118.9,-217.04C107.95,-198.26 94.26,-166.77 108.45,-144 124.63,-118.03 157.66,-104.43 182.95,-97.54"/>
</g>
<!-- OW -->
<g id="node43" class="node">
<title>OW</title>
<ellipse fill="none" stroke="black" cx="356.45" cy="-18" rx="27" ry="18"/>
<text text-anchor="middle" x="356.45" y="-14.3" font-family="Times,serif" font-size="14.00">OW</text>
</g>
<!-- MB&#45;&#45;OW -->
<g id="edge47" class="edge">
<title>MB&#45;&#45;OW</title>
<path fill="none" stroke="black" d="M241.48,-76.49C268.22,-63.11 310.14,-42.15 335.29,-29.58"/>
</g>
<!-- AQ -->
<g id="node10" class="node">
<title>AQ</title>
<ellipse fill="none" stroke="black" cx="34.45" cy="-234" rx="34.39" ry="18"/>
<text text-anchor="middle" x="34.45" y="-230.3" font-family="Times,serif" font-size="14.00">AQ 20</text>
</g>
<!-- CX -->
<g id="node11" class="node">
<title>CX</title>
<ellipse fill="none" stroke="black" cx="34.45" cy="-162" rx="27" ry="18"/>
<text text-anchor="middle" x="34.45" y="-158.3" font-family="Times,serif" font-size="14.00">CX</text>
</g>
<!-- AQ&#45;&#45;CX -->
<g id="edge8" class="edge">
<title>AQ&#45;&#45;CX</title>
<path fill="none" stroke="black" d="M34.45,-215.7C34.45,-204.85 34.45,-190.92 34.45,-180.1"/>
</g>
<!-- CX&#45;&#45;MB -->
<g id="edge18" class="edge">
<title>CX&#45;&#45;MB</title>
<path fill="none" stroke="black" d="M56.95,-151.51C62.94,-149.03 69.43,-146.38 75.45,-144 114.12,-128.72 159.14,-111.98 187.71,-101.48"/>
</g>
<!-- AW -->
<g id="node12" class="node">
<title>AW</title>
<ellipse fill="none" stroke="black" cx="476.45" cy="-306" rx="27" ry="18"/>
<text text-anchor="middle" x="476.45" y="-302.3" font-family="Times,serif" font-size="14.00">AW</text>
</g>
<!-- LG -->
<g id="node13" class="node">
<title>LG</title>
<ellipse fill="none" stroke="black" cx="586.45" cy="-234" rx="29.5" ry="18"/>
<text text-anchor="middle" x="586.45" y="-230.3" font-family="Times,serif" font-size="14.00">LG 3</text>
</g>
<!-- AW&#45;&#45;LG -->
<g id="edge9" class="edge">
<title>AW&#45;&#45;LG</title>
<path fill="none" stroke="black" d="M495.61,-292.81C515.55,-280.12 546.63,-260.34 566.77,-247.52"/>
</g>
<!-- TL -->
<g id="node14" class="node">
<title>TL</title>
<ellipse fill="none" stroke="black" cx="365.45" cy="-162" rx="32.49" ry="18"/>
<text text-anchor="middle" x="365.45" y="-158.3" font-family="Times,serif" font-size="14.00">TL 16</text>
</g>
<!-- AW&#45;&#45;TL -->
<g id="edge10" class="edge">
<title>AW&#45;&#45;TL</title>
<path fill="none" stroke="black" d="M464.36,-289.53C443.12,-262.36 399.33,-206.34 377.86,-178.88"/>
</g>
<!-- LG&#45;&#45;VY -->
<g id="edge41" class="edge">
<title>LG&#45;&#45;VY</title>
<path fill="none" stroke="black" d="M608.95,-222.06C636.32,-208.76 682.18,-186.46 709.04,-173.4"/>
</g>
<!-- LG&#45;&#45;ZR -->
<g id="edge42" class="edge">
<title>LG&#45;&#45;ZR</title>
<path fill="none" stroke="black" d="M556.76,-232.27C488.79,-229.91 317.2,-220.14 180.45,-180 175.27,-178.48 169.91,-176.31 164.95,-174.02"/>
</g>
<!-- PS -->
<g id="node46" class="node">
<title>PS</title>
<ellipse fill="none" stroke="black" cx="658.45" cy="-162" rx="27" ry="18"/>
<text text-anchor="middle" x="658.45" y="-158.3" font-family="Times,serif" font-size="14.00">PS</text>
</g>
<!-- LG&#45;&#45;PS -->
<g id="edge43" class="edge">
<title>LG&#45;&#45;PS</title>
<path fill="none" stroke="black" d="M601.72,-218.15C614.1,-206.12 631.45,-189.25 643.69,-177.35"/>
</g>
<!-- OI -->
<g id="node47" class="node">
<title>OI</title>
<ellipse fill="none" stroke="black" cx="586.45" cy="-162" rx="27" ry="18"/>
<text text-anchor="middle" x="586.45" y="-158.3" font-family="Times,serif" font-size="14.00">OI</text>
</g>
<!-- LG&#45;&#45;OI -->
<g id="edge44" class="edge">
<title>LG&#45;&#45;OI</title>
<path fill="none" stroke="black" d="M586.45,-215.7C586.45,-204.85 586.45,-190.92 586.45,-180.1"/>
</g>
<!-- XB -->
<g id="node49" class="node">
<title>XB</title>
<ellipse fill="none" stroke="black" cx="331.45" cy="-90" rx="27" ry="18"/>
<text text-anchor="middle" x="331.45" y="-86.3" font-family="Times,serif" font-size="14.00">XB</text>
</g>
<!-- TL&#45;&#45;XB -->
<g id="edge61" class="edge">
<title>TL&#45;&#45;XB</title>
<path fill="none" stroke="black" d="M357.39,-144.41C351.97,-133.25 344.85,-118.6 339.45,-107.47"/>
</g>
<!-- ZZ -->
<g id="node57" class="node">
<title>ZZ</title>
<ellipse fill="none" stroke="black" cx="440.45" cy="-90" rx="27" ry="18"/>
<text text-anchor="middle" x="440.45" y="-86.3" font-family="Times,serif" font-size="14.00">ZZ</text>
</g>
<!-- TL&#45;&#45;ZZ -->
<g id="edge62" class="edge">
<title>TL&#45;&#45;ZZ</title>
<path fill="none" stroke="black" d="M381.35,-146.15C394.34,-134.03 412.56,-117.02 425.33,-105.11"/>
</g>
<!-- BG -->
<g id="node15" class="node">
<title>BG</title>
<ellipse fill="none" stroke="black" cx="1757.45" cy="-306" rx="27" ry="18"/>
<text text-anchor="middle" x="1757.45" y="-302.3" font-family="Times,serif" font-size="14.00">BG</text>
</g>
<!-- MP -->
<g id="node16" class="node">
<title>MP</title>
<ellipse fill="none" stroke="black" cx="1774.45" cy="-234" rx="27" ry="18"/>
<text text-anchor="middle" x="1774.45" y="-230.3" font-family="Times,serif" font-size="14.00">MP</text>
</g>
<!-- BG&#45;&#45;MP -->
<g id="edge11" class="edge">
<title>BG&#45;&#45;MP</title>
<path fill="none" stroke="black" d="M1761.56,-288.05C1764.2,-277.21 1767.6,-263.18 1770.25,-252.28"/>
</g>
<!-- SB -->
<g id="node17" class="node">
<title>SB</title>
<ellipse fill="none" stroke="black" cx="1697.45" cy="-234" rx="32.49" ry="18"/>
<text text-anchor="middle" x="1697.45" y="-230.3" font-family="Times,serif" font-size="14.00">SB 18</text>
</g>
<!-- BG&#45;&#45;SB -->
<g id="edge12" class="edge">
<title>BG&#45;&#45;SB</title>
<path fill="none" stroke="black" d="M1744.43,-289.81C1734.5,-278.23 1720.88,-262.34 1710.86,-250.64"/>
</g>
<!-- VK -->
<g id="node50" class="node">
<title>VK</title>
<ellipse fill="none" stroke="black" cx="1774.45" cy="-162" rx="34.39" ry="18"/>
<text text-anchor="middle" x="1774.45" y="-158.3" font-family="Times,serif" font-size="14.00">VK 21</text>
</g>
<!-- MP&#45;&#45;VK -->
<g id="edge48" class="edge">
<title>MP&#45;&#45;VK</title>
<path fill="none" stroke="black" d="M1774.45,-215.7C1774.45,-204.85 1774.45,-190.92 1774.45,-180.1"/>
</g>
<!-- CD -->
<g id="node18" class="node">
<title>CD</title>
<ellipse fill="none" stroke="black" cx="864.45" cy="-306" rx="27" ry="18"/>
<text text-anchor="middle" x="864.45" y="-302.3" font-family="Times,serif" font-size="14.00">CD</text>
</g>
<!-- VL -->
<g id="node19" class="node">
<title>VL</title>
<ellipse fill="none" stroke="black" cx="857.45" cy="-90" rx="27" ry="18"/>
<text text-anchor="middle" x="857.45" y="-86.3" font-family="Times,serif" font-size="14.00">VL</text>
</g>
<!-- CD&#45;&#45;VL -->
<g id="edge14" class="edge">
<title>CD&#45;&#45;VL</title>
<path fill="none" stroke="black" d="M863.89,-287.85C862.58,-247.78 859.32,-148.38 858.01,-108.23"/>
</g>
<!-- OF -->
<g id="node20" class="node">
<title>OF</title>
<ellipse fill="none" stroke="black" cx="944.45" cy="-234" rx="28.7" ry="18"/>
<text text-anchor="middle" x="944.45" y="-230.3" font-family="Times,serif" font-size="14.00">OF 4</text>
</g>
<!-- CD&#45;&#45;OF -->
<g id="edge15" class="edge">
<title>CD&#45;&#45;OF</title>
<path fill="none" stroke="black" d="M880.25,-291.17C894.1,-279.06 914.13,-261.53 928.13,-249.28"/>
</g>
<!-- WV -->
<g id="node55" class="node">
<title>WV</title>
<ellipse fill="none" stroke="black" cx="857.45" cy="-18" rx="36.29" ry="18"/>
<text text-anchor="middle" x="857.45" y="-14.3" font-family="Times,serif" font-size="14.00">WV 25</text>
</g>
<!-- VL&#45;&#45;WV -->
<g id="edge66" class="edge">
<title>VL&#45;&#45;WV</title>
<path fill="none" stroke="black" d="M857.45,-71.7C857.45,-60.85 857.45,-46.92 857.45,-36.1"/>
</g>
<!-- OF&#45;&#45;TQ -->
<g id="edge50" class="edge">
<title>OF&#45;&#45;TQ</title>
<path fill="none" stroke="black" d="M953.72,-216.76C960.19,-205.46 968.77,-190.44 975.22,-179.15"/>
</g>
<!-- CS -->
<g id="node21" class="node">
<title>CS</title>
<ellipse fill="none" stroke="black" cx="1424.45" cy="-306" rx="27" ry="18"/>
<text text-anchor="middle" x="1424.45" y="-302.3" font-family="Times,serif" font-size="14.00">CS</text>
</g>
<!-- VF -->
<g id="node22" class="node">
<title>VF</title>
<ellipse fill="none" stroke="black" cx="1506.45" cy="-234" rx="27" ry="18"/>
<text text-anchor="middle" x="1506.45" y="-230.3" font-family="Times,serif" font-size="14.00">VF</text>
</g>
<!-- CS&#45;&#45;VF -->
<g id="edge16" class="edge">
<title>CS&#45;&#45;VF</title>
<path fill="none" stroke="black" d="M1440.65,-291.17C1455.02,-278.9 1475.91,-261.06 1490.28,-248.8"/>
</g>
<!-- QB -->
<g id="node23" class="node">
<title>QB</title>
<ellipse fill="none" stroke="black" cx="1355.45" cy="-234" rx="34.39" ry="18"/>
<text text-anchor="middle" x="1355.45" y="-230.3" font-family="Times,serif" font-size="14.00">QB 14</text>
</g>
<!-- CS&#45;&#45;QB -->
<g id="edge17" class="edge">
<title>CS&#45;&#45;QB</title>
<path fill="none" stroke="black" d="M1410.15,-290.5C1398.62,-278.8 1382.45,-262.4 1370.68,-250.46"/>
</g>
<!-- XK -->
<g id="node51" class="node">
<title>XK</title>
<ellipse fill="none" stroke="black" cx="1503.45" cy="-162" rx="34.39" ry="18"/>
<text text-anchor="middle" x="1503.45" y="-158.3" font-family="Times,serif" font-size="14.00">XK 15</text>
</g>
<!-- VF&#45;&#45;XK -->
<g id="edge65" class="edge">
<title>VF&#45;&#45;XK</title>
<path fill="none" stroke="black" d="M1505.71,-215.7C1505.24,-204.85 1504.64,-190.92 1504.18,-180.1"/>
</g>
<!-- XE -->
<g id="node44" class="node">
<title>XE</title>
<ellipse fill="none" stroke="black" cx="1407.45" cy="-90" rx="27" ry="18"/>
<text text-anchor="middle" x="1407.45" y="-86.3" font-family="Times,serif" font-size="14.00">XE</text>
</g>
<!-- QB&#45;&#45;XE -->
<g id="edge54" class="edge">
<title>QB&#45;&#45;XE</title>
<path fill="none" stroke="black" d="M1380.02,-220.95C1395.3,-211.98 1413.66,-198.16 1422.45,-180 1433.78,-156.59 1424.11,-126.12 1415.91,-107.58"/>
</g>
<!-- VO -->
<g id="node53" class="node">
<title>VO</title>
<ellipse fill="none" stroke="black" cx="1386.45" cy="-162" rx="27" ry="18"/>
<text text-anchor="middle" x="1386.45" y="-158.3" font-family="Times,serif" font-size="14.00">VO</text>
</g>
<!-- QB&#45;&#45;VO -->
<g id="edge55" class="edge">
<title>QB&#45;&#45;VO</title>
<path fill="none" stroke="black" d="M1362.95,-216.05C1367.83,-205.05 1374.15,-190.76 1379.01,-179.79"/>
</g>
<!-- DC -->
<g id="node24" class="node">
<title>DC</title>
<ellipse fill="none" stroke="black" cx="1565.45" cy="-306" rx="29.8" ry="18"/>
<text text-anchor="middle" x="1565.45" y="-302.3" font-family="Times,serif" font-size="14.00">DC 8</text>
</g>
<!-- ZD -->
<g id="node25" class="node">
<title>ZD</title>
<ellipse fill="none" stroke="black" cx="1534.45" cy="-90" rx="27" ry="18"/>
<text text-anchor="middle" x="1534.45" y="-86.3" font-family="Times,serif" font-size="14.00">ZD</text>
</g>
<!-- DC&#45;&#45;ZD -->
<g id="edge19" class="edge">
<title>DC&#45;&#45;ZD</title>
<path fill="none" stroke="black" d="M1563.99,-287.52C1561.39,-257.87 1555.35,-195.87 1546.45,-144 1544.37,-131.91 1541.31,-118.43 1538.8,-108.09"/>
</g>
<!-- MJ -->
<g id="node26" class="node">
<title>MJ</title>
<ellipse fill="none" stroke="black" cx="1620.45" cy="-234" rx="27" ry="18"/>
<text text-anchor="middle" x="1620.45" y="-230.3" font-family="Times,serif" font-size="14.00">MJ</text>
</g>
<!-- DC&#45;&#45;MJ -->
<g id="edge20" class="edge">
<title>DC&#45;&#45;MJ</title>
<path fill="none" stroke="black" d="M1577.65,-289.46C1586.77,-277.86 1599.17,-262.08 1608.27,-250.49"/>
</g>
<!-- RZ -->
<g id="node27" class="node">
<title>RZ</title>
<ellipse fill="none" stroke="black" cx="1095.45" cy="-234" rx="27" ry="18"/>
<text text-anchor="middle" x="1095.45" y="-230.3" font-family="Times,serif" font-size="14.00">RZ</text>
</g>
<!-- DC&#45;&#45;RZ -->
<g id="edge21" class="edge">
<title>DC&#45;&#45;RZ</title>
<path fill="none" stroke="black" d="M1536.98,-299.98C1515.9,-296.37 1486.43,-291.52 1460.45,-288 1314.69,-268.24 1273.01,-291.96 1131.45,-252 1126.26,-250.54 1120.89,-248.39 1115.93,-246.1"/>
</g>
<!-- UE -->
<g id="node30" class="node">
<title>UE</title>
<ellipse fill="none" stroke="black" cx="1096.45" cy="-162" rx="29.5" ry="18"/>
<text text-anchor="middle" x="1096.45" y="-158.3" font-family="Times,serif" font-size="14.00">UE 9</text>
</g>
<!-- RZ&#45;&#45;UE -->
<g id="edge58" class="edge">
<title>RZ&#45;&#45;UE</title>
<path fill="none" stroke="black" d="M1095.69,-215.7C1095.85,-204.85 1096.05,-190.92 1096.2,-180.1"/>
</g>
<!-- FO -->
<g id="node28" class="node">
<title>FO</title>
<ellipse fill="none" stroke="black" cx="1167.45" cy="-234" rx="27" ry="18"/>
<text text-anchor="middle" x="1167.45" y="-230.3" font-family="Times,serif" font-size="14.00">FO</text>
</g>
<!-- XQ -->
<g id="node29" class="node">
<title>XQ</title>
<ellipse fill="none" stroke="black" cx="1170.45" cy="-162" rx="27" ry="18"/>
<text text-anchor="middle" x="1170.45" y="-158.3" font-family="Times,serif" font-size="14.00">XQ</text>
</g>
<!-- FO&#45;&#45;XQ -->
<g id="edge22" class="edge">
<title>FO&#45;&#45;XQ</title>
<path fill="none" stroke="black" d="M1168.19,-215.7C1168.65,-204.85 1169.25,-190.92 1169.71,-180.1"/>
</g>
<!-- FO&#45;&#45;UE -->
<g id="edge23" class="edge">
<title>FO&#45;&#45;UE</title>
<path fill="none" stroke="black" d="M1152.74,-218.5C1140.55,-206.48 1123.32,-189.49 1111.14,-177.49"/>
</g>
<!-- UE&#45;&#45;ZM -->
<g id="edge63" class="edge">
<title>UE&#45;&#45;ZM</title>
<path fill="none" stroke="black" d="M1073.09,-150.52C1043.17,-137.1 991.7,-114 962.45,-100.87"/>
</g>
<!-- WI -->
<g id="node59" class="node">
<title>WI</title>
<ellipse fill="none" stroke="black" cx="1106.45" cy="-90" rx="27" ry="18"/>
<text text-anchor="middle" x="1106.45" y="-86.3" font-family="Times,serif" font-size="14.00">WI</text>
</g>
<!-- UE&#45;&#45;WI -->
<g id="edge64" class="edge">
<title>UE&#45;&#45;WI</title>
<path fill="none" stroke="black" d="M1098.92,-143.7C1100.47,-132.85 1102.46,-118.92 1104,-108.1"/>
</g>
<!-- HK -->
<g id="node31" class="node">
<title>HK</title>
<ellipse fill="none" stroke="black" cx="1250.45" cy="-306" rx="27" ry="18"/>
<text text-anchor="middle" x="1250.45" y="-302.3" font-family="Times,serif" font-size="14.00">HK</text>
</g>
<!-- HK&#45;&#45;QB -->
<g id="edge24" class="edge">
<title>HK&#45;&#45;QB</title>
<path fill="none" stroke="black" d="M1269.22,-292.49C1287.62,-280.22 1315.62,-261.55 1334.68,-248.85"/>
</g>
<!-- RL -->
<g id="node32" class="node">
<title>RL</title>
<ellipse fill="none" stroke="black" cx="1028.45" cy="-90" rx="27" ry="18"/>
<text text-anchor="middle" x="1028.45" y="-86.3" font-family="Times,serif" font-size="14.00">RL</text>
</g>
<!-- HK&#45;&#45;RL -->
<g id="edge25" class="edge">
<title>HK&#45;&#45;RL</title>
<path fill="none" stroke="black" d="M1225.02,-299.51C1175.69,-288.63 1070.82,-264.33 1059.45,-252 1022.29,-211.73 1023.49,-140.99 1026.36,-108.37"/>
</g>
<!-- RL&#45;&#45;WV -->
<g id="edge57" class="edge">
<title>RL&#45;&#45;WV</title>
<path fill="none" stroke="black" d="M1005.74,-79.7C974.49,-66.91 918.29,-43.91 884.77,-30.19"/>
</g>
<!-- HO -->
<g id="node33" class="node">
<title>HO</title>
<ellipse fill="none" stroke="black" cx="973.45" cy="-378" rx="27" ry="18"/>
<text text-anchor="middle" x="973.45" y="-374.3" font-family="Times,serif" font-size="14.00">HO</text>
</g>
<!-- HO&#45;&#45;UE -->
<g id="edge26" class="edge">
<title>HO&#45;&#45;UE</title>
<path fill="none" stroke="black" d="M981.37,-360.65C995.85,-331.15 1027.97,-267.33 1059.45,-216 1067.31,-203.18 1077.08,-189.26 1084.6,-178.9"/>
</g>
<!-- JE -->
<g id="node34" class="node">
<title>JE</title>
<ellipse fill="none" stroke="black" cx="945.45" cy="-306" rx="27" ry="18"/>
<text text-anchor="middle" x="945.45" y="-302.3" font-family="Times,serif" font-size="14.00">JE</text>
</g>
<!-- HO&#45;&#45;JE -->
<g id="edge27" class="edge">
<title>HO&#45;&#45;JE</title>
<path fill="none" stroke="black" d="M966.81,-360.41C962.35,-349.25 956.49,-334.6 952.03,-323.47"/>
</g>
<!-- JE&#45;&#45;OF -->
<g id="edge37" class="edge">
<title>JE&#45;&#45;OF</title>
<path fill="none" stroke="black" d="M945.2,-287.7C945.04,-276.85 944.85,-262.92 944.69,-252.1"/>
</g>
<!-- IM -->
<g id="node35" class="node">
<title>IM</title>
<ellipse fill="none" stroke="black" cx="1342.45" cy="-306" rx="27" ry="18"/>
<text text-anchor="middle" x="1342.45" y="-302.3" font-family="Times,serif" font-size="14.00">IM</text>
</g>
<!-- IM&#45;&#45;OF -->
<g id="edge28" class="edge">
<title>IM&#45;&#45;OF</title>
<path fill="none" stroke="black" d="M1318.67,-296.97C1308.78,-293.85 1297.15,-290.44 1286.45,-288 1255.91,-281.04 1048.26,-250.26 972.25,-239.08"/>
</g>
<!-- OM -->
<g id="node36" class="node">
<title>OM</title>
<ellipse fill="none" stroke="black" cx="1434.45" cy="-234" rx="27" ry="18"/>
<text text-anchor="middle" x="1434.45" y="-230.3" font-family="Times,serif" font-size="14.00">OM</text>
</g>
<!-- IM&#45;&#45;OM -->
<g id="edge29" class="edge">
<title>IM&#45;&#45;OM</title>
<path fill="none" stroke="black" d="M1359.75,-291.83C1376.2,-279.32 1400.8,-260.6 1417.22,-248.11"/>
</g>
<!-- OM&#45;&#45;XK -->
<g id="edge52" class="edge">
<title>OM&#45;&#45;XK</title>
<path fill="none" stroke="black" d="M1448.74,-218.5C1460.27,-206.8 1476.44,-190.4 1488.21,-178.46"/>
</g>
<!-- IR -->
<g id="node37" class="node">
<title>IR</title>
<ellipse fill="none" stroke="black" cx="1138.45" cy="-306" rx="27" ry="18"/>
<text text-anchor="middle" x="1138.45" y="-302.3" font-family="Times,serif" font-size="14.00">IR</text>
</g>
<!-- IR&#45;&#45;OF -->
<g id="edge30" class="edge">
<title>IR&#45;&#45;OF</title>
<path fill="none" stroke="black" d="M1115.05,-296.56C1078.06,-283.21 1006.44,-257.37 968.85,-243.8"/>
</g>
<!-- IV -->
<g id="node38" class="node">
<title>IV</title>
<ellipse fill="none" stroke="black" cx="1243.45" cy="-234" rx="30.59" ry="18"/>
<text text-anchor="middle" x="1243.45" y="-230.3" font-family="Times,serif" font-size="14.00">IV 23</text>
</g>
<!-- IR&#45;&#45;IV -->
<g id="edge31" class="edge">
<title>IR&#45;&#45;IV</title>
<path fill="none" stroke="black" d="M1157.22,-292.49C1175.98,-279.98 1204.7,-260.83 1223.77,-248.12"/>
</g>
<!-- IV&#45;&#45;XQ -->
<g id="edge32" class="edge">
<title>IV&#45;&#45;XQ</title>
<path fill="none" stroke="black" d="M1227.97,-218.15C1215.41,-206.12 1197.82,-189.25 1185.41,-177.35"/>
</g>
<!-- JQ -->
<g id="node39" class="node">
<title>JQ</title>
<ellipse fill="none" stroke="black" cx="1314.45" cy="-162" rx="27" ry="18"/>
<text text-anchor="middle" x="1314.45" y="-158.3" font-family="Times,serif" font-size="14.00">JQ</text>
</g>
<!-- IV&#45;&#45;JQ -->
<g id="edge33" class="edge">
<title>IV&#45;&#45;JQ</title>
<path fill="none" stroke="black" d="M1258.5,-218.15C1270.72,-206.12 1287.82,-189.25 1299.9,-177.35"/>
</g>
<!-- QN -->
<g id="node40" class="node">
<title>QN</title>
<ellipse fill="none" stroke="black" cx="1242.45" cy="-162" rx="27" ry="18"/>
<text text-anchor="middle" x="1242.45" y="-158.3" font-family="Times,serif" font-size="14.00">QN</text>
</g>
<!-- IV&#45;&#45;QN -->
<g id="edge34" class="edge">
<title>IV&#45;&#45;QN</title>
<path fill="none" stroke="black" d="M1243.2,-215.7C1243.04,-204.85 1242.85,-190.92 1242.69,-180.1"/>
</g>
<!-- JQ&#45;&#45;XE -->
<g id="edge38" class="edge">
<title>JQ&#45;&#45;XE</title>
<path fill="none" stroke="black" d="M1331.94,-147.83C1348.57,-135.32 1373.43,-116.6 1390.03,-104.11"/>
</g>
<!-- QR -->
<g id="node54" class="node">
<title>QR</title>
<ellipse fill="none" stroke="black" cx="1242.45" cy="-90" rx="34.39" ry="18"/>
<text text-anchor="middle" x="1242.45" y="-86.3" font-family="Times,serif" font-size="14.00">QR 24</text>
</g>
<!-- QN&#45;&#45;QR -->
<g id="edge56" class="edge">
<title>QN&#45;&#45;QR</title>
<path fill="none" stroke="black" d="M1242.45,-143.7C1242.45,-132.85 1242.45,-118.92 1242.45,-108.1"/>
</g>
<!-- JB -->
<g id="node41" class="node">
<title>JB</title>
<ellipse fill="none" stroke="black" cx="514.45" cy="-162" rx="27" ry="18"/>
<text text-anchor="middle" x="514.45" y="-158.3" font-family="Times,serif" font-size="14.00">JB</text>
</g>
<!-- JB&#45;&#45;ZE -->
<g id="edge35" class="edge">
<title>JB&#45;&#45;ZE</title>
<path fill="none" stroke="black" d="M527.47,-145.81C537.53,-134.07 551.4,-117.89 561.45,-106.16"/>
</g>
<!-- JB&#45;&#45;OW -->
<g id="edge36" class="edge">
<title>JB&#45;&#45;OW</title>
<path fill="none" stroke="black" d="M511.09,-143.8C506.45,-124.14 496.28,-92.08 476.45,-72 450.36,-45.59 408.84,-31.32 382.12,-24.44"/>
</g>
<!-- KR -->
<g id="node45" class="node">
<title>KR</title>
<ellipse fill="none" stroke="black" cx="1668.45" cy="-306" rx="27" ry="18"/>
<text text-anchor="middle" x="1668.45" y="-302.3" font-family="Times,serif" font-size="14.00">KR</text>
</g>
<!-- KR&#45;&#45;SB -->
<g id="edge39" class="edge">
<title>KR&#45;&#45;SB</title>
<path fill="none" stroke="black" d="M1675.32,-288.41C1679.88,-277.41 1685.84,-263.03 1690.42,-251.96"/>
</g>
<!-- KR&#45;&#45;MJ -->
<g id="edge40" class="edge">
<title>KR&#45;&#45;MJ</title>
<path fill="none" stroke="black" d="M1657.56,-289.12C1649.7,-277.66 1639.14,-262.26 1631.3,-250.82"/>
</g>
<!-- VR -->
<g id="node52" class="node">
<title>VR</title>
<ellipse fill="none" stroke="black" cx="723.45" cy="-90" rx="27" ry="18"/>
<text text-anchor="middle" x="723.45" y="-86.3" font-family="Times,serif" font-size="14.00">VR</text>
</g>
<!-- PS&#45;&#45;VR -->
<g id="edge53" class="edge">
<title>PS&#45;&#45;VR</title>
<path fill="none" stroke="black" d="M672.23,-146.15C683.26,-134.28 698.66,-117.7 709.68,-105.82"/>
</g>
<!-- OI&#45;&#45;ZE -->
<g id="edge51" class="edge">
<title>OI&#45;&#45;ZE</title>
<path fill="none" stroke="black" d="M583.48,-143.7C581.62,-132.85 579.23,-118.92 577.38,-108.1"/>
</g>
<!-- MA -->
<g id="node48" class="node">
<title>MA</title>
<ellipse fill="none" stroke="black" cx="288.45" cy="-162" rx="27" ry="18"/>
<text text-anchor="middle" x="288.45" y="-158.3" font-family="Times,serif" font-size="14.00">MA</text>
</g>
<!-- MA&#45;&#45;MB -->
<g id="edge45" class="edge">
<title>MA&#45;&#45;MB</title>
<path fill="none" stroke="black" d="M273.53,-146.5C261.5,-134.8 244.63,-118.4 232.35,-106.46"/>
</g>
<!-- MA&#45;&#45;XB -->
<g id="edge46" class="edge">
<title>MA&#45;&#45;XB</title>
<path fill="none" stroke="black" d="M298.42,-144.76C305.37,-133.46 314.59,-118.44 321.53,-107.15"/>
</g>
<!-- XK&#45;&#45;ZD -->
<g id="edge69" class="edge">
<title>XK&#45;&#45;ZD</title>
<path fill="none" stroke="black" d="M1510.95,-144.05C1515.83,-133.05 1522.15,-118.76 1527.01,-107.79"/>
</g>
<!-- VR&#45;&#45;WV -->
<g id="edge68" class="edge">
<title>VR&#45;&#45;WV</title>
<path fill="none" stroke="black" d="M744.38,-78.06C768.38,-65.53 807.66,-45.01 833.03,-31.76"/>
</g>
<!-- VO&#45;&#45;WI -->
<g id="edge67" class="edge">
<title>VO&#45;&#45;WI</title>
<path fill="none" stroke="black" d="M1365.46,-150.11C1360.61,-147.87 1355.42,-145.69 1350.45,-144 1309.92,-130.23 1186.7,-106.16 1132.5,-95.88"/>
</g>
<!-- SE -->
<g id="node56" class="node">
<title>SE</title>
<ellipse fill="none" stroke="black" cx="442.45" cy="-162" rx="27" ry="18"/>
<text text-anchor="middle" x="442.45" y="-158.3" font-family="Times,serif" font-size="14.00">SE</text>
</g>
<!-- SE&#45;&#45;ZE -->
<g id="edge59" class="edge">
<title>SE&#45;&#45;ZE</title>
<path fill="none" stroke="black" d="M463.07,-150.06C487.58,-137.07 528.27,-115.49 553.09,-102.32"/>
</g>
<!-- SE&#45;&#45;ZZ -->
<g id="edge60" class="edge">
<title>SE&#45;&#45;ZZ</title>
<path fill="none" stroke="black" d="M441.95,-143.7C441.64,-132.85 441.24,-118.92 440.94,-108.1"/>
</g>
</g>
</svg>
