<?xml version="1.0" encoding="UTF-8" standalone="no"?>
<!DOCTYPE svg PUBLIC "-//W3C//DTD SVG 1.1//EN"
 "http://www.w3.org/Graphics/SVG/1.1/DTD/svg11.dtd">
<!-- Generated by graphviz version 7.0.4 (20221203.1631)
 -->
<!-- Pages: 1 -->
<svg width="169pt" height="548pt"
 viewBox="0.00 0.00 168.66 548.00" xmlns="http://www.w3.org/2000/svg" xmlns:xlink="http://www.w3.org/1999/xlink">
<g id="graph0" class="graph" transform="scale(1 1) rotate(0) translate(4 544)">
<polygon fill="white" stroke="none" points="-4,4 -4,-544 164.66,-544 164.66,4 -4,4"/>
<!-- AA -->
<g id="node1" class="node">
<title>AA</title>
<ellipse fill="none" stroke="black" cx="47.86" cy="-522" rx="27" ry="18"/>
<text text-anchor="middle" x="47.86" y="-518.3" font-family="Times,serif" font-size="14.00">AA</text>
</g>
<!-- DD -->
<g id="node2" class="node">
<title>DD</title>
<ellipse fill="none" stroke="black" cx="58.86" cy="-306" rx="34.39" ry="18"/>
<text text-anchor="middle" x="58.86" y="-302.3" font-family="Times,serif" font-size="14.00">DD 20</text>
</g>
<!-- AA&#45;&#45;DD -->
<g id="edge1" class="edge">
<title>AA&#45;&#45;DD</title>
<path fill="none" stroke="black" d="M34.11,-506.07C25.9,-496.1 16.24,-482.25 11.86,-468 -2.25,-422.12 -5.17,-404.88 11.86,-360 17.62,-344.82 29.94,-331.21 40.52,-321.58"/>
</g>
<!-- II -->
<g id="node3" class="node">
<title>II</title>
<ellipse fill="none" stroke="black" cx="47.86" cy="-450" rx="27" ry="18"/>
<text text-anchor="middle" x="47.86" y="-446.3" font-family="Times,serif" font-size="14.00">II</text>
</g>
<!-- AA&#45;&#45;II -->
<g id="edge2" class="edge">
<title>AA&#45;&#45;II</title>
<path fill="none" stroke="black" d="M47.86,-503.7C47.86,-492.85 47.86,-478.92 47.86,-468.1"/>
</g>
<!-- BB -->
<g id="node4" class="node">
<title>BB</title>
<ellipse fill="none" stroke="black" cx="126.86" cy="-450" rx="33.6" ry="18"/>
<text text-anchor="middle" x="126.86" y="-446.3" font-family="Times,serif" font-size="14.00">BB 13</text>
</g>
<!-- AA&#45;&#45;BB -->
<g id="edge3" class="edge">
<title>AA&#45;&#45;BB</title>
<path fill="none" stroke="black" d="M63.47,-507.17C76.87,-495.3 96.14,-478.22 109.92,-466.01"/>
</g>
<!-- EE -->
<g id="node6" class="node">
<title>EE</title>
<ellipse fill="none" stroke="black" cx="58.86" cy="-234" rx="28.7" ry="18"/>
<text text-anchor="middle" x="58.86" y="-230.3" font-family="Times,serif" font-size="14.00">EE 3</text>
</g>
<!-- DD&#45;&#45;EE -->
<g id="edge6" class="edge">
<title>DD&#45;&#45;EE</title>
<path fill="none" stroke="black" d="M58.86,-287.7C58.86,-276.85 58.86,-262.92 58.86,-252.1"/>
</g>
<!-- JJ -->
<g id="node10" class="node">
<title>JJ</title>
<ellipse fill="none" stroke="black" cx="49.86" cy="-378" rx="28.7" ry="18"/>
<text text-anchor="middle" x="49.86" y="-374.3" font-family="Times,serif" font-size="14.00">JJ 21</text>
</g>
<!-- II&#45;&#45;JJ -->
<g id="edge10" class="edge">
<title>II&#45;&#45;JJ</title>
<path fill="none" stroke="black" d="M48.35,-431.7C48.66,-420.85 49.06,-406.92 49.37,-396.1"/>
</g>
<!-- CC -->
<g id="node5" class="node">
<title>CC</title>
<ellipse fill="none" stroke="black" cx="125.86" cy="-378" rx="29.5" ry="18"/>
<text text-anchor="middle" x="125.86" y="-374.3" font-family="Times,serif" font-size="14.00">CC 2</text>
</g>
<!-- BB&#45;&#45;CC -->
<g id="edge4" class="edge">
<title>BB&#45;&#45;CC</title>
<path fill="none" stroke="black" d="M126.61,-431.7C126.46,-420.85 126.26,-406.92 126.1,-396.1"/>
</g>
<!-- CC&#45;&#45;DD -->
<g id="edge5" class="edge">
<title>CC&#45;&#45;DD</title>
<path fill="none" stroke="black" d="M111.65,-362.15C100.43,-350.44 84.84,-334.14 73.51,-322.31"/>
</g>
<!-- FF -->
<g id="node7" class="node">
<title>FF</title>
<ellipse fill="none" stroke="black" cx="58.86" cy="-162" rx="27" ry="18"/>
<text text-anchor="middle" x="58.86" y="-158.3" font-family="Times,serif" font-size="14.00">FF</text>
</g>
<!-- EE&#45;&#45;FF -->
<g id="edge7" class="edge">
<title>EE&#45;&#45;FF</title>
<path fill="none" stroke="black" d="M58.86,-215.7C58.86,-204.85 58.86,-190.92 58.86,-180.1"/>
</g>
<!-- GG -->
<g id="node8" class="node">
<title>GG</title>
<ellipse fill="none" stroke="black" cx="58.86" cy="-90" rx="27" ry="18"/>
<text text-anchor="middle" x="58.86" y="-86.3" font-family="Times,serif" font-size="14.00">GG</text>
</g>
<!-- FF&#45;&#45;GG -->
<g id="edge8" class="edge">
<title>FF&#45;&#45;GG</title>
<path fill="none" stroke="black" d="M58.86,-143.7C58.86,-132.85 58.86,-118.92 58.86,-108.1"/>
</g>
<!-- HH -->
<g id="node9" class="node">
<title>HH</title>
<ellipse fill="none" stroke="black" cx="58.86" cy="-18" rx="34.39" ry="18"/>
<text text-anchor="middle" x="58.86" y="-14.3" font-family="Times,serif" font-size="14.00">HH 22</text>
</g>
<!-- GG&#45;&#45;HH -->
<g id="edge9" class="edge">
<title>GG&#45;&#45;HH</title>
<path fill="none" stroke="black" d="M58.86,-71.7C58.86,-60.85 58.86,-46.92 58.86,-36.1"/>
</g>
</g>
</svg>
